<?xml version="1.0" standalone="no"?>
<!DOCTYPE svg PUBLIC "-//W3C//DTD SVG 20010904//EN"
 "http://www.w3.org/TR/2001/REC-SVG-20010904/DTD/svg10.dtd">
<svg version="1.0" xmlns="http://www.w3.org/2000/svg"
 width="1290.000000pt" height="1290.000000pt" viewBox="0 0 1290.000000 1290.000000"
 preserveAspectRatio="xMidYMid meet">
<metadata>
Created by potrace 1.11, written by Peter Selinger 2001-2013
</metadata>
<g transform="translate(0.000000,1290.000000) scale(0.100000,-0.100000)"
fill="#000000" stroke="none">
<path d="M5540 12424 c-14 -3 -92 -16 -175 -30 -551 -92 -1028 -290 -1440
-598 -142 -106 -398 -358 -505 -496 -225 -291 -405 -629 -525 -983 -137 -409
-218 -873 -214 -1238 1 -86 -1 -161 -4 -166 -6 -10 -202 -673 -442 -1493 -101
-346 -166 -554 -186 -590 -188 -343 -314 -663 -383 -970 -74 -332 -76 -729 -6
-974 11 -38 17 -73 14 -78 -3 -5 -1 -14 4 -21 6 -7 24 -37 40 -67 131 -246
377 -620 636 -965 57 -76 324 -414 336 -425 3 -3 27 -32 54 -65 28 -33 57 -67
65 -76 9 -9 39 -43 66 -75 177 -207 342 -387 571 -623 89 -91 174 -182 190
-201 61 -76 425 -431 524 -511 462 -376 708 -385 784 -29 13 62 16 415 3 437
-2 4 -8 40 -12 78 -9 99 -20 182 -35 265 -15 82 -15 83 -55 240 -39 154 -67
254 -117 415 -18 55 -33 105 -34 110 -2 6 -12 44 -23 85 -10 41 -28 116 -39
165 -11 50 -24 104 -28 120 -4 17 -8 35 -10 40 -13 58 -65 228 -104 345 -87
260 -121 435 -141 735 -19 277 0 684 51 1105 20 161 66 473 77 517 4 16 37 39
122 83 259 136 507 325 767 585 309 309 595 682 822 1072 283 487 662 916
1023 1156 177 117 392 208 576 243 120 22 351 15 439 -13 116 -38 431 -230
604 -368 604 -484 922 -1125 969 -1954 41 -714 -161 -1600 -554 -2431 -35 -74
-89 -191 -120 -260 -68 -149 -548 -1102 -920 -1825 -333 -647 -1186 -2294
-1387 -2677 -8 -17 42 -18 984 -17 l993 0 267 537 c400 806 681 1335 828 1563
481 743 884 1588 1113 2334 175 569 269 1040 323 1625 25 258 25 843 1 1100
-60 645 -205 1240 -412 1690 -29 63 -79 176 -110 250 -126 300 -279 582 -471
870 -500 752 -1171 1338 -2024 1770 -669 338 -1410 559 -2210 660 -155 20
-504 35 -560 24z"/>
<path d="M12885 2430 c3 -5 8 -10 11 -10 2 0 4 5 4 10 0 6 -5 10 -11 10 -5 0
-7 -4 -4 -10z"/>
</g>
</svg>
